<svg xmlns="http://www.w3.org/2000/svg" width="430" height="430" fill="none" viewBox="0 0 430 430"><path fill="#e6a" d="M8.225 164.128c-2.48-.664-3.034-3.932-.913-5.377l89.867-61.23a3 3 0 0 1 4.392 1.177l47.212 97.96c1.115 2.312-1 4.865-3.479 4.2l-37.333-10.003a110.3 110.3 0 0 0-2.772 24.646c0 25.48 8.663 48.936 23.204 67.584l-56.638 32.7c-19.893-28.399-31.566-62.978-31.566-100.284 0-14.291 1.713-28.183 4.946-41.48zM266.394 8.225c.664-2.48 3.932-3.034 5.377-.913L333 97.179a3 3 0 0 1-1.177 4.392l-97.96 47.212c-2.311 1.115-4.864-1-4.2-3.479l10.004-37.333a110.3 110.3 0 0 0-24.647-2.772c-25.479 0-48.935 8.663-67.584 23.204l-32.7-56.638c28.4-19.893 62.979-31.566 100.284-31.566 14.292 0 28.184 1.713 41.481 4.946zm156.47 258.169c2.479.664 3.033 3.932.913 5.377L333.909 333a3 3 0 0 1-4.391-1.177l-47.213-97.96c-1.114-2.311 1-4.864 3.479-4.2l37.334 10.004a110.4 110.4 0 0 0 2.771-24.647c0-25.479-8.662-48.935-23.204-67.584l56.639-32.7c19.892 28.4 31.565 62.979 31.565 100.284 0 14.292-1.713 28.184-4.945 41.481zm-259.258 155.47c-.664 2.479-3.932 3.033-5.377.913L97 332.909a3 3 0 0 1 1.177-4.391l97.96-47.213c2.311-1.114 4.864 1 4.2 3.479l-10.004 37.334a110.4 110.4 0 0 0 24.647 2.771c25.479 0 48.935-8.662 67.584-23.204l32.7 56.639c-28.4 19.892-62.979 31.565-100.284 31.565a175.5 175.5 0 0 1-41.481-4.945z"/><path fill="#e6a" d="M266.394 8.225c.664-2.48 3.932-3.034 5.377-.913L333 97.179a3 3 0 0 1-1.177 4.392l-97.96 47.212c-2.311 1.115-4.864-1-4.2-3.479l10.004-37.333a110.3 110.3 0 0 0-24.647-2.772c-25.479 0-48.935 8.663-67.584 23.204l-32.7-56.638c28.4-19.893 62.979-31.566 100.284-31.566 14.292 0 28.184 1.713 41.481 4.946zM163.606 421.864c-.664 2.479-3.932 3.033-5.377.913L97 332.909a3 3 0 0 1 1.177-4.391l97.96-47.213c2.311-1.114 4.864 1 4.2 3.479l-10.004 37.334a110.4 110.4 0 0 0 24.647 2.771c25.479 0 48.935-8.662 67.584-23.204l32.7 56.639c-28.4 19.892-62.979 31.565-100.284 31.565a175.5 175.5 0 0 1-41.481-4.945z" opacity=".5" style="mix-blend-mode:multiply"/></svg>