<svg xmlns="http://www.w3.org/2000/svg" width="430" height="430" fill="none" viewBox="0 0 430 430"><circle cx="215" cy="100" r="75" fill="#ebe6ef"/><path stroke="#646E78" stroke-linecap="round" stroke-linejoin="round" stroke-width="7" d="m195.419 128.59 25.042.219a14.25 14.25 0 0 0 14.14-14.22 14.303 14.303 0 0 0-14.3-14.33H209.34a14.34 14.34 0 0 1-10.139-4.193A14.33 14.33 0 0 1 195 85.929a14.34 14.34 0 0 1 14.34-14.33h22.212M214.801 140v-11.251m0-57.19V60"/><path fill="#ebe6ef" d="M144.357 74.748A74.9 74.9 0 0 0 140 100c0 41.421 33.579 75 75 75a74.9 74.9 0 0 0 25.252-4.357zm141.582 49.658A74.9 74.9 0 0 0 290 100c0-41.421-33.579-75-75-75a74.9 74.9 0 0 0-24.406 4.06z" opacity=".5" style="mix-blend-mode:multiply"/><path fill="#ffc738" d="M115 305c16.569 0 30-13.431 30-30s-13.431-30-30-30c-16.568 0-30 13.431-30 30s13.432 30 30 30"/><path fill="#e6a" d="M50 365c0-24.853 20.147-45 45-45h40c24.853 0 45 20.147 45 45v12a3 3 0 0 1-3 3H53a3 3 0 0 1-3-3z"/><g opacity=".5" style="mix-blend-mode:multiply"><path fill="#ffc738" d="M115 305c16.569 0 30-13.431 30-30s-13.431-30-30-30c-16.568 0-30 13.431-30 30s13.432 30 30 30"/><path fill="#e6a" d="M50 365c0-24.853 20.147-45 45-45h40c24.853 0 45 20.147 45 45v12a3 3 0 0 1-3 3H53a3 3 0 0 1-3-3z"/></g><path fill="#ffc738" d="M315 305c16.569 0 30-13.431 30-30s-13.431-30-30-30-30 13.431-30 30 13.431 30 30 30"/><path fill="#e6a" d="M250 365c0-24.853 20.147-45 45-45h40c24.853 0 45 20.147 45 45v12a3 3 0 0 1-3 3H253a3 3 0 0 1-3-3z"/><g opacity=".5" style="mix-blend-mode:multiply"><path fill="#ffc738" d="M315 305c16.569 0 30-13.431 30-30s-13.431-30-30-30-30 13.431-30 30 13.431 30 30 30"/><path fill="#e6a" d="M250 365c0-24.853 20.147-45 45-45h40c24.853 0 45 20.147 45 45v12a3 3 0 0 1-3 3H253a3 3 0 0 1-3-3z"/></g><path fill="#ffc738" d="M215 305c24.853 0 45-20.147 45-45s-20.147-45-45-45-45 20.147-45 45 20.147 45 45 45"/><path fill="#e6a" d="M125 375c0-30.376 24.624-55 55-55h70c30.376 0 55 24.624 55 55v22a3 3 0 0 1-3 3H128a3 3 0 0 1-3-3z"/><path fill="#ffc738" d="M243.447 294.87q-1.707.13-3.447.13c-24.853 0-45-20.147-45-45 0-14.062 6.45-26.618 16.553-34.87C188.311 216.89 170 236.307 170 260c0 24.853 20.147 45 45 45a44.8 44.8 0 0 0 28.447-10.13" opacity=".3" style="mix-blend-mode:multiply"/><path fill="#e6a" d="M180 320c-30.376 0-55 24.624-55 55v22a3 3 0 0 0 3 3h27v-25c0-30.376 24.624-55 55-55z" opacity=".3" style="mix-blend-mode:multiply"/></svg>