<svg xmlns="http://www.w3.org/2000/svg" width="430" height="430" fill="none" viewBox="0 0 430 430"><path stroke="#110a5c" stroke-linecap="round" stroke-linejoin="round" stroke-miterlimit="10" stroke-width="7" d="m272.135 139.638-66.584 34.104m66.584 116.62-66.547-34.085"/><path fill="#ebe6ef" d="M120 310c52.467 0 95-42.533 95-95s-42.533-94.5-95-94.5-95 42.033-95 94.5 42.533 95 95 95"/><path fill="#ebe6ef" d="M180.742 288.047C169.709 292.53 157.643 295 145 295c-52.467 0-95-42.533-95-95 0-29.221 13.193-55.205 33.947-72.494C49.358 141.565 25 175.295 25 215c0 52.467 42.533 95 95 95 23.101 0 44.275-8.245 60.742-21.953" opacity=".5" style="mix-blend-mode:multiply"/><path fill="#ffc738" d="M330 175c35.899 0 65-29.102 65-65s-29.101-65-65-65-65 29.102-65 65 29.101 65 65 65"/><path fill="#ffc738" d="M368.607 162.298A65 65 0 0 1 350 165c-35.899 0-65-29.101-65-65 0-21.442 10.382-40.458 26.393-52.298C284.562 55.705 265 80.568 265 110c0 35.899 29.101 65 65 65 14.457 0 27.811-4.72 38.607-12.702" opacity=".5" style="mix-blend-mode:multiply"/><path stroke="#110a5c" stroke-linecap="round" stroke-linejoin="round" stroke-width="7" d="m312.374 135.015 22.126.188c6.768.052 12.48-5.538 12.5-12.472.02-6.92-5.64-12.543-12.631-12.543h-9.699c-6.997 0-12.67-5.616-12.67-12.543s5.673-12.536 12.67-12.536h19.635M329.503 145v-9.842m0-50.043V75"/><path stroke="#2CA58D" stroke-linecap="round" stroke-linejoin="round" stroke-width="7" d="m155 180-70 70m62.5 5c6.904 0 12.5-5.596 12.5-12.5s-5.596-12.5-12.5-12.5-12.5 5.596-12.5 12.5 5.596 12.5 12.5 12.5m-55-55c6.904 0 12.5-5.596 12.5-12.5S99.404 175 92.5 175 80 180.596 80 187.5 85.596 200 92.5 200"/><path fill="#ffc738" d="M330 385c35.898 0 65-29.102 65-65 0-35.899-29.102-65-65-65-35.899 0-65 29.101-65 65s29.101 65 65 65"/><path fill="#ffc738" d="M368.607 372.298A65 65 0 0 1 350 375c-35.899 0-65-29.101-65-65 0-21.442 10.382-40.458 26.393-52.298C284.562 265.705 265 290.568 265 320c0 35.899 29.101 65 65 65 14.457 0 27.811-4.72 38.607-12.702" opacity=".5" style="mix-blend-mode:multiply"/><path stroke="#110a5c" stroke-linecap="round" stroke-linejoin="round" stroke-width="7" d="m312.374 345.015 22.126.188c6.768.052 12.48-5.538 12.5-12.472.02-6.92-5.64-12.543-12.631-12.543h-9.699c-6.997 0-12.67-5.616-12.67-12.543s5.673-12.537 12.67-12.537h19.635M329.503 355v-9.842m0-50.043V285"/></svg>