<svg xmlns="http://www.w3.org/2000/svg" width="430" height="430" fill="none" viewBox="0 0 430 430"><path fill="#e8b730" d="M147.833 210.665c26.326 0 47.667-21.341 47.667-47.666 0-26.326-21.341-47.667-47.667-47.667-26.325 0-47.666 21.341-47.666 47.667 0 26.325 21.341 47.666 47.666 47.666"/><path fill="#e6a" d="M48.167 308.844c0-39.863 32.315-72.178 72.178-72.178h54.978c39.862 0 72.177 32.315 72.177 72.178v14.489H51.167a3 3 0 0 1-3-3z"/><path fill="#e8b730" d="M282.167 210.665c26.325 0 47.666-21.341 47.666-47.666 0-26.326-21.341-47.667-47.666-47.667-26.326 0-47.667 21.341-47.667 47.667 0 26.325 21.341 47.666 47.667 47.666"/><path fill="#e6a" d="M182.5 308.844c0-39.863 32.315-72.178 72.178-72.178h54.978c39.862 0 72.177 32.315 72.177 72.178v11.489a3 3 0 0 1-3 3H182.5z"/><path fill="#e8b730" d="M147.833 210.665c26.326 0 47.667-21.341 47.667-47.666 0-26.326-21.341-47.667-47.667-47.667-26.325 0-47.666 21.341-47.666 47.667 0 26.325 21.341 47.666 47.666 47.666" opacity=".5" style="mix-blend-mode:multiply"/><path fill="#e6a" d="M48.167 308.844c0-39.863 32.315-72.178 72.178-72.178h54.978c39.862 0 72.177 32.315 72.177 72.178v14.489H51.167a3 3 0 0 1-3-3z" opacity=".5" style="mix-blend-mode:multiply"/><path fill="#e8b730" d="M282.167 210.665c26.325 0 47.666-21.341 47.666-47.666 0-26.326-21.341-47.667-47.666-47.667-26.326 0-47.667 21.341-47.667 47.667 0 26.325 21.341 47.666 47.667 47.666" opacity=".5" style="mix-blend-mode:multiply"/><path fill="#e6a" d="M182.5 308.844c0-39.863 32.315-72.178 72.178-72.178h54.978c39.862 0 72.177 32.315 72.177 72.178v11.489a3 3 0 0 1-3 3H182.5z" opacity=".5" style="mix-blend-mode:multiply"/><path fill="#e8b730" d="M217.167 206.333c33.505 0 60.666-27.161 60.666-60.666 0-33.506-27.161-60.667-60.666-60.667-33.506 0-60.667 27.161-60.667 60.667s27.161 60.666 60.667 60.666"/><path fill="#e6a" d="M95.833 322.666c0-47.496 38.503-85.999 85.999-85.999h66.336c47.496 0 85.999 38.503 85.999 85.999V342a3 3 0 0 1-3 3H98.833a3 3 0 0 1-3-3z"/><path fill="#e8b730" d="M223.325 85.309c-16.181 10.895-26.825 29.383-26.825 50.358 0 31.426 23.896 57.272 54.509 60.358-9.668 6.509-21.311 10.308-33.842 10.308-33.506 0-60.667-27.161-60.667-60.666C156.5 112.161 183.661 85 217.167 85q3.119.001 6.158.309" opacity=".3" style="mix-blend-mode:multiply"/><path fill="#e6a" d="M181.832 236.667c-47.496 0-85.999 38.503-85.999 85.999V342a3 3 0 0 0 3 3h37v-22.334c0-47.496 38.503-85.999 85.999-85.999z" opacity=".3" style="mix-blend-mode:multiply"/></svg>